<mxfile host="app.diagrams.net" modified="2021-12-31T03:16:36.875Z" agent="5.0 (Windows NT 10.0; Win64; x64) AppleWebKit/537.36 (KHTML, like Gecko) Chrome/95.0.4638.54 Safari/537.36" etag="GW_ijWfW5XyTaSZ1ttsM" version="15.5.9" type="github">
  <diagram id="6I0OCvxSQrVGMHxT2VVA" name="Page-1">
    <mxGraphModel dx="1422" dy="794" grid="1" gridSize="10" guides="1" tooltips="1" connect="1" arrows="1" fold="1" page="1" pageScale="1" pageWidth="850" pageHeight="1100" math="0" shadow="0">
      <root>
        <mxCell id="0" />
        <mxCell id="1" parent="0" />
        <mxCell id="dKdSaXE48SgPbhcamS2K-30" value="" style="whiteSpace=wrap;html=1;strokeColor=none;strokeWidth=1;fillColor=#f5f5f5;fontSize=14;" parent="1" vertex="1">
          <mxGeometry x="194" y="670" width="1075" height="300" as="geometry" />
        </mxCell>
        <mxCell id="dKdSaXE48SgPbhcamS2K-31" value="" style="whiteSpace=wrap;html=1;strokeColor=none;strokeWidth=1;fillColor=#f5f5f5;fontSize=14;" parent="1" vertex="1">
          <mxGeometry x="194" y="500" width="1075" height="160" as="geometry" />
        </mxCell>
        <mxCell id="dKdSaXE48SgPbhcamS2K-32" value="" style="whiteSpace=wrap;html=1;strokeColor=none;strokeWidth=1;fillColor=#f5f5f5;fontSize=14;" parent="1" vertex="1">
          <mxGeometry x="184" y="330" width="1075" height="140" as="geometry" />
        </mxCell>
        <mxCell id="dKdSaXE48SgPbhcamS2K-33" value="Node" style="html=1;whiteSpace=wrap;fillColor=#AFFFAF;shape=mxgraph.archimate3.application;appType=node;archiType=square;fontSize=14;verticalAlign=top;" parent="1" vertex="1">
          <mxGeometry x="390" y="815" width="480" height="145" as="geometry" />
        </mxCell>
        <mxCell id="dKdSaXE48SgPbhcamS2K-34" style="edgeStyle=elbowEdgeStyle;rounded=1;elbow=vertical;html=1;startSize=10;endArrow=block;endFill=0;endSize=10;jettySize=auto;orthogonalLoop=1;strokeColor=#808080;fontSize=14;dashed=1;" parent="1" source="dKdSaXE48SgPbhcamS2K-35" target="dKdSaXE48SgPbhcamS2K-40" edge="1">
          <mxGeometry relative="1" as="geometry" />
        </mxCell>
        <mxCell id="dKdSaXE48SgPbhcamS2K-35" value="&lt;div&gt;&lt;br&gt;&lt;/div&gt;System&lt;div&gt;Software&lt;/div&gt;" style="html=1;whiteSpace=wrap;fillColor=#AFFFAF;shape=mxgraph.archimate3.tech;techType=sysSw;fontSize=14;" parent="1" vertex="1">
          <mxGeometry x="444" y="860" width="140" height="60" as="geometry" />
        </mxCell>
        <mxCell id="dKdSaXE48SgPbhcamS2K-36" style="edgeStyle=elbowEdgeStyle;rounded=1;elbow=vertical;html=1;startSize=10;endArrow=block;endFill=0;endSize=10;jettySize=auto;orthogonalLoop=1;strokeColor=#808080;fontSize=14;dashed=1;" parent="1" source="dKdSaXE48SgPbhcamS2K-37" target="dKdSaXE48SgPbhcamS2K-45" edge="1">
          <mxGeometry relative="1" as="geometry" />
        </mxCell>
        <mxCell id="dKdSaXE48SgPbhcamS2K-37" value="&lt;div&gt;&lt;br&gt;&lt;/div&gt;&lt;div&gt;&lt;span&gt;System&lt;/span&gt;&lt;div&gt;Software&lt;/div&gt;&lt;/div&gt;" style="html=1;whiteSpace=wrap;fillColor=#AFFFAF;shape=mxgraph.archimate3.tech;techType=sysSw;fontSize=14;" parent="1" vertex="1">
          <mxGeometry x="684" y="860" width="140" height="60" as="geometry" />
        </mxCell>
        <mxCell id="dKdSaXE48SgPbhcamS2K-38" style="edgeStyle=elbowEdgeStyle;rounded=1;elbow=vertical;html=1;startSize=10;endArrow=open;endFill=0;endSize=10;jettySize=auto;orthogonalLoop=1;strokeColor=#808080;fontSize=14;entryX=0.25;entryY=1;" parent="1" source="dKdSaXE48SgPbhcamS2K-40" target="dKdSaXE48SgPbhcamS2K-49" edge="1">
          <mxGeometry relative="1" as="geometry" />
        </mxCell>
        <mxCell id="dKdSaXE48SgPbhcamS2K-39" style="edgeStyle=elbowEdgeStyle;rounded=1;elbow=vertical;html=1;startSize=10;endArrow=open;endFill=0;endSize=10;jettySize=auto;orthogonalLoop=1;strokeColor=#808080;fontSize=14;entryX=0.25;entryY=1;exitX=0.265;exitY=0.007;exitPerimeter=0;" parent="1" source="dKdSaXE48SgPbhcamS2K-40" target="dKdSaXE48SgPbhcamS2K-47" edge="1">
          <mxGeometry relative="1" as="geometry">
            <Array as="points">
              <mxPoint x="422" y="670" />
            </Array>
          </mxGeometry>
        </mxCell>
        <mxCell id="dKdSaXE48SgPbhcamS2K-40" value="Service" style="html=1;whiteSpace=wrap;fillColor=#AFFFAF;shape=mxgraph.archimate3.service;fontSize=14;" parent="1" vertex="1">
          <mxGeometry x="439" y="680" width="150" height="50" as="geometry" />
        </mxCell>
        <mxCell id="dKdSaXE48SgPbhcamS2K-41" style="edgeStyle=elbowEdgeStyle;rounded=1;elbow=vertical;html=1;startSize=10;endArrow=open;endFill=0;endSize=10;jettySize=auto;orthogonalLoop=1;strokeColor=#808080;fontSize=14;" parent="1" source="dKdSaXE48SgPbhcamS2K-45" target="dKdSaXE48SgPbhcamS2K-53" edge="1">
          <mxGeometry relative="1" as="geometry">
            <Array as="points">
              <mxPoint x="909" y="700" />
            </Array>
          </mxGeometry>
        </mxCell>
        <mxCell id="dKdSaXE48SgPbhcamS2K-42" style="edgeStyle=elbowEdgeStyle;rounded=1;elbow=vertical;html=1;startSize=10;endArrow=open;endFill=0;endSize=10;jettySize=auto;orthogonalLoop=1;strokeColor=#808080;fontSize=14;entryX=0.5;entryY=1;exitX=0.769;exitY=0.025;exitPerimeter=0;" parent="1" source="dKdSaXE48SgPbhcamS2K-45" target="dKdSaXE48SgPbhcamS2K-51" edge="1">
          <mxGeometry relative="1" as="geometry">
            <Array as="points">
              <mxPoint x="809" y="650" />
            </Array>
          </mxGeometry>
        </mxCell>
        <mxCell id="dKdSaXE48SgPbhcamS2K-43" style="edgeStyle=elbowEdgeStyle;rounded=1;elbow=vertical;html=1;startSize=10;endArrow=open;endFill=0;endSize=10;jettySize=auto;orthogonalLoop=1;strokeColor=#808080;fontSize=14;entryX=0.5;entryY=1;exitX=0.468;exitY=0.025;exitPerimeter=0;" parent="1" source="dKdSaXE48SgPbhcamS2K-45" target="dKdSaXE48SgPbhcamS2K-49" edge="1">
          <mxGeometry relative="1" as="geometry">
            <Array as="points">
              <mxPoint x="699" y="620" />
            </Array>
          </mxGeometry>
        </mxCell>
        <mxCell id="dKdSaXE48SgPbhcamS2K-44" style="edgeStyle=elbowEdgeStyle;rounded=1;elbow=vertical;html=1;startSize=10;endArrow=open;endFill=0;endSize=10;jettySize=auto;orthogonalLoop=1;strokeColor=#808080;fontSize=14;exitX=0.251;exitY=0.002;exitPerimeter=0;" parent="1" source="dKdSaXE48SgPbhcamS2K-45" target="dKdSaXE48SgPbhcamS2K-47" edge="1">
          <mxGeometry relative="1" as="geometry">
            <Array as="points">
              <mxPoint x="589" y="650" />
            </Array>
          </mxGeometry>
        </mxCell>
        <mxCell id="dKdSaXE48SgPbhcamS2K-45" value="Service" style="html=1;whiteSpace=wrap;fillColor=#AFFFAF;shape=mxgraph.archimate3.service;fontSize=14;" parent="1" vertex="1">
          <mxGeometry x="679" y="680" width="150" height="50" as="geometry" />
        </mxCell>
        <mxCell id="dKdSaXE48SgPbhcamS2K-46" style="edgeStyle=elbowEdgeStyle;rounded=1;elbow=vertical;html=1;startSize=10;endArrow=open;endFill=0;endSize=10;jettySize=auto;orthogonalLoop=1;strokeColor=#808080;fontSize=14;" parent="1" source="dKdSaXE48SgPbhcamS2K-47" target="dKdSaXE48SgPbhcamS2K-54" edge="1">
          <mxGeometry relative="1" as="geometry" />
        </mxCell>
        <mxCell id="dKdSaXE48SgPbhcamS2K-47" value="Module" style="shape=component;align=center;fillColor=#99ffff;gradientColor=none;fontSize=14;" parent="1" vertex="1">
          <mxGeometry x="329" y="510" width="185" height="80" as="geometry" />
        </mxCell>
        <mxCell id="dKdSaXE48SgPbhcamS2K-48" style="edgeStyle=elbowEdgeStyle;rounded=1;elbow=vertical;html=1;startSize=10;endArrow=open;endFill=0;endSize=10;jettySize=auto;orthogonalLoop=1;strokeColor=#808080;fontSize=14;" parent="1" source="dKdSaXE48SgPbhcamS2K-49" target="dKdSaXE48SgPbhcamS2K-55" edge="1">
          <mxGeometry relative="1" as="geometry" />
        </mxCell>
        <mxCell id="dKdSaXE48SgPbhcamS2K-49" value="Module" style="shape=component;align=center;fillColor=#99ffff;gradientColor=none;fontSize=14;" parent="1" vertex="1">
          <mxGeometry x="537" y="510" width="185" height="80" as="geometry" />
        </mxCell>
        <mxCell id="dKdSaXE48SgPbhcamS2K-50" style="edgeStyle=elbowEdgeStyle;rounded=1;elbow=vertical;html=1;startSize=10;endArrow=open;endFill=0;endSize=10;jettySize=auto;orthogonalLoop=1;strokeColor=#808080;fontSize=14;" parent="1" source="dKdSaXE48SgPbhcamS2K-51" target="dKdSaXE48SgPbhcamS2K-56" edge="1">
          <mxGeometry relative="1" as="geometry" />
        </mxCell>
        <mxCell id="dKdSaXE48SgPbhcamS2K-51" value="Module" style="shape=component;align=center;fillColor=#99ffff;gradientColor=none;fontSize=14;" parent="1" vertex="1">
          <mxGeometry x="761.5" y="510" width="185" height="80" as="geometry" />
        </mxCell>
        <mxCell id="dKdSaXE48SgPbhcamS2K-52" style="edgeStyle=elbowEdgeStyle;rounded=1;elbow=vertical;html=1;startSize=10;endArrow=open;endFill=0;endSize=10;jettySize=auto;orthogonalLoop=1;strokeColor=#808080;fontSize=14;" parent="1" source="dKdSaXE48SgPbhcamS2K-53" target="dKdSaXE48SgPbhcamS2K-57" edge="1">
          <mxGeometry relative="1" as="geometry" />
        </mxCell>
        <mxCell id="dKdSaXE48SgPbhcamS2K-53" value="Module" style="shape=component;align=center;fillColor=#99ffff;gradientColor=none;fontSize=14;" parent="1" vertex="1">
          <mxGeometry x="969" y="510" width="185" height="80" as="geometry" />
        </mxCell>
        <mxCell id="dKdSaXE48SgPbhcamS2K-54" value="Function" style="html=1;whiteSpace=wrap;fillColor=#ffff99;shape=mxgraph.archimate3.application;appType=func;archiType=rounded;fontSize=14;" parent="1" vertex="1">
          <mxGeometry x="346.5" y="360" width="150" height="75" as="geometry" />
        </mxCell>
        <mxCell id="dKdSaXE48SgPbhcamS2K-55" value="Collaboration" style="html=1;whiteSpace=wrap;fillColor=#ffff99;shape=mxgraph.archimate3.application;appType=collab;archiType=square;fontSize=14;" parent="1" vertex="1">
          <mxGeometry x="554.5" y="360" width="150" height="75" as="geometry" />
        </mxCell>
        <mxCell id="dKdSaXE48SgPbhcamS2K-56" value="Application Event" style="html=1;whiteSpace=wrap;fillColor=#ffff99;shape=mxgraph.archimate3.application;appType=event;archiType=rounded;fontSize=14;" parent="1" vertex="1">
          <mxGeometry x="779" y="360" width="150" height="75" as="geometry" />
        </mxCell>
        <mxCell id="dKdSaXE48SgPbhcamS2K-57" value="Process" style="html=1;whiteSpace=wrap;fillColor=#ffff99;shape=mxgraph.archimate3.application;appType=proc;archiType=rounded;fontSize=14;" parent="1" vertex="1">
          <mxGeometry x="986.5" y="360" width="150" height="75" as="geometry" />
        </mxCell>
        <mxCell id="dKdSaXE48SgPbhcamS2K-58" value="Technology" style="text;html=1;strokeColor=none;fillColor=none;align=center;verticalAlign=middle;whiteSpace=wrap;fontSize=14;" parent="1" vertex="1">
          <mxGeometry x="1269" y="751" width="240" height="20" as="geometry" />
        </mxCell>
        <mxCell id="dKdSaXE48SgPbhcamS2K-59" value="Application" style="text;html=1;strokeColor=none;fillColor=none;align=center;verticalAlign=middle;whiteSpace=wrap;fontSize=14;" parent="1" vertex="1">
          <mxGeometry x="1269" y="541" width="240" height="20" as="geometry" />
        </mxCell>
        <mxCell id="dKdSaXE48SgPbhcamS2K-60" value="Business" style="text;html=1;strokeColor=none;fillColor=none;align=center;verticalAlign=middle;whiteSpace=wrap;fontSize=14;" parent="1" vertex="1">
          <mxGeometry x="1259" y="389" width="240" height="20" as="geometry" />
        </mxCell>
        <mxCell id="dKdSaXE48SgPbhcamS2K-61" style="edgeStyle=elbowEdgeStyle;rounded=1;elbow=vertical;html=1;dashed=1;startSize=10;endArrow=block;endFill=0;endSize=10;jettySize=auto;orthogonalLoop=1;strokeColor=#808080;fontSize=14;" parent="1" source="dKdSaXE48SgPbhcamS2K-62" target="dKdSaXE48SgPbhcamS2K-54" edge="1">
          <mxGeometry relative="1" as="geometry" />
        </mxCell>
        <mxCell id="dKdSaXE48SgPbhcamS2K-62" value="" style="html=1;whiteSpace=wrap;fillColor=#ffff99;shape=mxgraph.archimate3.actor;fontSize=14;" parent="1" vertex="1">
          <mxGeometry x="200" y="375" width="50" height="95" as="geometry" />
        </mxCell>
        <mxCell id="dKdSaXE48SgPbhcamS2K-63" value="Title" style="text;strokeColor=none;fillColor=none;html=1;fontSize=24;fontStyle=1;verticalAlign=middle;align=center;" parent="1" vertex="1">
          <mxGeometry x="50" y="70" width="1590" height="40" as="geometry" />
        </mxCell>
        <mxCell id="xHJeZc-ZolqW59HUAo1m-1" value="" style="rounded=0;whiteSpace=wrap;html=1;" vertex="1" parent="1">
          <mxGeometry x="340" y="270" width="120" height="60" as="geometry" />
        </mxCell>
        <mxCell id="xHJeZc-ZolqW59HUAo1m-2" value="Table" style="shape=table;startSize=30;container=1;collapsible=0;childLayout=tableLayout;fixedRows=1;rowLines=0;fontStyle=1;align=center;pointerEvents=1;" vertex="1" parent="1">
          <mxGeometry x="50" y="391" width="180" height="150" as="geometry" />
        </mxCell>
        <mxCell id="xHJeZc-ZolqW59HUAo1m-3" value="" style="shape=partialRectangle;html=1;whiteSpace=wrap;collapsible=0;dropTarget=0;pointerEvents=1;fillColor=none;top=0;left=0;bottom=1;right=0;points=[[0,0.5],[1,0.5]];portConstraint=eastwest;" vertex="1" parent="xHJeZc-ZolqW59HUAo1m-2">
          <mxGeometry y="30" width="180" height="30" as="geometry" />
        </mxCell>
        <mxCell id="xHJeZc-ZolqW59HUAo1m-4" value="1" style="shape=partialRectangle;html=1;whiteSpace=wrap;connectable=0;fillColor=none;top=0;left=0;bottom=0;right=0;overflow=hidden;pointerEvents=1;" vertex="1" parent="xHJeZc-ZolqW59HUAo1m-3">
          <mxGeometry width="40" height="30" as="geometry">
            <mxRectangle width="40" height="30" as="alternateBounds" />
          </mxGeometry>
        </mxCell>
        <mxCell id="xHJeZc-ZolqW59HUAo1m-5" value="Value 1" style="shape=partialRectangle;html=1;whiteSpace=wrap;connectable=0;fillColor=none;top=0;left=0;bottom=0;right=0;align=left;spacingLeft=6;overflow=hidden;pointerEvents=1;" vertex="1" parent="xHJeZc-ZolqW59HUAo1m-3">
          <mxGeometry x="40" width="140" height="30" as="geometry">
            <mxRectangle width="140" height="30" as="alternateBounds" />
          </mxGeometry>
        </mxCell>
        <mxCell id="xHJeZc-ZolqW59HUAo1m-6" value="" style="shape=partialRectangle;html=1;whiteSpace=wrap;collapsible=0;dropTarget=0;pointerEvents=1;fillColor=none;top=0;left=0;bottom=0;right=0;points=[[0,0.5],[1,0.5]];portConstraint=eastwest;" vertex="1" parent="xHJeZc-ZolqW59HUAo1m-2">
          <mxGeometry y="60" width="180" height="30" as="geometry" />
        </mxCell>
        <mxCell id="xHJeZc-ZolqW59HUAo1m-7" value="2" style="shape=partialRectangle;html=1;whiteSpace=wrap;connectable=0;fillColor=none;top=0;left=0;bottom=0;right=0;overflow=hidden;pointerEvents=1;" vertex="1" parent="xHJeZc-ZolqW59HUAo1m-6">
          <mxGeometry width="40" height="30" as="geometry">
            <mxRectangle width="40" height="30" as="alternateBounds" />
          </mxGeometry>
        </mxCell>
        <mxCell id="xHJeZc-ZolqW59HUAo1m-8" value="Value 2" style="shape=partialRectangle;html=1;whiteSpace=wrap;connectable=0;fillColor=none;top=0;left=0;bottom=0;right=0;align=left;spacingLeft=6;overflow=hidden;pointerEvents=1;" vertex="1" parent="xHJeZc-ZolqW59HUAo1m-6">
          <mxGeometry x="40" width="140" height="30" as="geometry">
            <mxRectangle width="140" height="30" as="alternateBounds" />
          </mxGeometry>
        </mxCell>
        <mxCell id="xHJeZc-ZolqW59HUAo1m-9" value="" style="shape=partialRectangle;html=1;whiteSpace=wrap;collapsible=0;dropTarget=0;pointerEvents=1;fillColor=none;top=0;left=0;bottom=0;right=0;points=[[0,0.5],[1,0.5]];portConstraint=eastwest;" vertex="1" parent="xHJeZc-ZolqW59HUAo1m-2">
          <mxGeometry y="90" width="180" height="30" as="geometry" />
        </mxCell>
        <mxCell id="xHJeZc-ZolqW59HUAo1m-10" value="3" style="shape=partialRectangle;html=1;whiteSpace=wrap;connectable=0;fillColor=none;top=0;left=0;bottom=0;right=0;overflow=hidden;pointerEvents=1;" vertex="1" parent="xHJeZc-ZolqW59HUAo1m-9">
          <mxGeometry width="40" height="30" as="geometry">
            <mxRectangle width="40" height="30" as="alternateBounds" />
          </mxGeometry>
        </mxCell>
        <mxCell id="xHJeZc-ZolqW59HUAo1m-11" value="Value 3" style="shape=partialRectangle;html=1;whiteSpace=wrap;connectable=0;fillColor=none;top=0;left=0;bottom=0;right=0;align=left;spacingLeft=6;overflow=hidden;pointerEvents=1;" vertex="1" parent="xHJeZc-ZolqW59HUAo1m-9">
          <mxGeometry x="40" width="140" height="30" as="geometry">
            <mxRectangle width="140" height="30" as="alternateBounds" />
          </mxGeometry>
        </mxCell>
        <mxCell id="xHJeZc-ZolqW59HUAo1m-12" value="" style="shape=table;html=1;whiteSpace=wrap;startSize=0;container=1;collapsible=0;childLayout=tableLayout;" vertex="1" parent="1">
          <mxGeometry x="80" y="610" width="180" height="120" as="geometry" />
        </mxCell>
        <mxCell id="xHJeZc-ZolqW59HUAo1m-13" value="" style="shape=partialRectangle;html=1;whiteSpace=wrap;collapsible=0;dropTarget=0;pointerEvents=0;fillColor=none;top=0;left=0;bottom=0;right=0;points=[[0,0.5],[1,0.5]];portConstraint=eastwest;" vertex="1" parent="xHJeZc-ZolqW59HUAo1m-12">
          <mxGeometry width="180" height="40" as="geometry" />
        </mxCell>
        <mxCell id="xHJeZc-ZolqW59HUAo1m-14" value="" style="shape=partialRectangle;html=1;whiteSpace=wrap;connectable=0;fillColor=none;top=0;left=0;bottom=0;right=0;overflow=hidden;pointerEvents=1;" vertex="1" parent="xHJeZc-ZolqW59HUAo1m-13">
          <mxGeometry width="60" height="40" as="geometry">
            <mxRectangle width="60" height="40" as="alternateBounds" />
          </mxGeometry>
        </mxCell>
        <mxCell id="xHJeZc-ZolqW59HUAo1m-15" value="" style="shape=partialRectangle;html=1;whiteSpace=wrap;connectable=0;fillColor=none;top=0;left=0;bottom=0;right=0;overflow=hidden;pointerEvents=1;" vertex="1" parent="xHJeZc-ZolqW59HUAo1m-13">
          <mxGeometry x="60" width="60" height="40" as="geometry">
            <mxRectangle width="60" height="40" as="alternateBounds" />
          </mxGeometry>
        </mxCell>
        <mxCell id="xHJeZc-ZolqW59HUAo1m-16" value="" style="shape=partialRectangle;html=1;whiteSpace=wrap;connectable=0;fillColor=none;top=0;left=0;bottom=0;right=0;overflow=hidden;pointerEvents=1;" vertex="1" parent="xHJeZc-ZolqW59HUAo1m-13">
          <mxGeometry x="120" width="60" height="40" as="geometry">
            <mxRectangle width="60" height="40" as="alternateBounds" />
          </mxGeometry>
        </mxCell>
        <mxCell id="xHJeZc-ZolqW59HUAo1m-17" value="" style="shape=partialRectangle;html=1;whiteSpace=wrap;collapsible=0;dropTarget=0;pointerEvents=0;fillColor=none;top=0;left=0;bottom=0;right=0;points=[[0,0.5],[1,0.5]];portConstraint=eastwest;" vertex="1" parent="xHJeZc-ZolqW59HUAo1m-12">
          <mxGeometry y="40" width="180" height="40" as="geometry" />
        </mxCell>
        <mxCell id="xHJeZc-ZolqW59HUAo1m-18" value="" style="shape=partialRectangle;html=1;whiteSpace=wrap;connectable=0;fillColor=none;top=0;left=0;bottom=0;right=0;overflow=hidden;pointerEvents=1;" vertex="1" parent="xHJeZc-ZolqW59HUAo1m-17">
          <mxGeometry width="60" height="40" as="geometry">
            <mxRectangle width="60" height="40" as="alternateBounds" />
          </mxGeometry>
        </mxCell>
        <mxCell id="xHJeZc-ZolqW59HUAo1m-19" value="" style="shape=partialRectangle;html=1;whiteSpace=wrap;connectable=0;fillColor=none;top=0;left=0;bottom=0;right=0;overflow=hidden;pointerEvents=1;" vertex="1" parent="xHJeZc-ZolqW59HUAo1m-17">
          <mxGeometry x="60" width="60" height="40" as="geometry">
            <mxRectangle width="60" height="40" as="alternateBounds" />
          </mxGeometry>
        </mxCell>
        <mxCell id="xHJeZc-ZolqW59HUAo1m-20" value="" style="shape=partialRectangle;html=1;whiteSpace=wrap;connectable=0;fillColor=none;top=0;left=0;bottom=0;right=0;overflow=hidden;pointerEvents=1;" vertex="1" parent="xHJeZc-ZolqW59HUAo1m-17">
          <mxGeometry x="120" width="60" height="40" as="geometry">
            <mxRectangle width="60" height="40" as="alternateBounds" />
          </mxGeometry>
        </mxCell>
        <mxCell id="xHJeZc-ZolqW59HUAo1m-21" value="" style="shape=partialRectangle;html=1;whiteSpace=wrap;collapsible=0;dropTarget=0;pointerEvents=0;fillColor=none;top=0;left=0;bottom=0;right=0;points=[[0,0.5],[1,0.5]];portConstraint=eastwest;" vertex="1" parent="xHJeZc-ZolqW59HUAo1m-12">
          <mxGeometry y="80" width="180" height="40" as="geometry" />
        </mxCell>
        <mxCell id="xHJeZc-ZolqW59HUAo1m-22" value="" style="shape=partialRectangle;html=1;whiteSpace=wrap;connectable=0;fillColor=none;top=0;left=0;bottom=0;right=0;overflow=hidden;pointerEvents=1;" vertex="1" parent="xHJeZc-ZolqW59HUAo1m-21">
          <mxGeometry width="60" height="40" as="geometry">
            <mxRectangle width="60" height="40" as="alternateBounds" />
          </mxGeometry>
        </mxCell>
        <mxCell id="xHJeZc-ZolqW59HUAo1m-23" value="" style="shape=partialRectangle;html=1;whiteSpace=wrap;connectable=0;fillColor=none;top=0;left=0;bottom=0;right=0;overflow=hidden;pointerEvents=1;" vertex="1" parent="xHJeZc-ZolqW59HUAo1m-21">
          <mxGeometry x="60" width="60" height="40" as="geometry">
            <mxRectangle width="60" height="40" as="alternateBounds" />
          </mxGeometry>
        </mxCell>
        <mxCell id="xHJeZc-ZolqW59HUAo1m-24" value="" style="shape=partialRectangle;html=1;whiteSpace=wrap;connectable=0;fillColor=none;top=0;left=0;bottom=0;right=0;overflow=hidden;pointerEvents=1;" vertex="1" parent="xHJeZc-ZolqW59HUAo1m-21">
          <mxGeometry x="120" width="60" height="40" as="geometry">
            <mxRectangle width="60" height="40" as="alternateBounds" />
          </mxGeometry>
        </mxCell>
        <mxCell id="xHJeZc-ZolqW59HUAo1m-25" value="" style="ellipse;whiteSpace=wrap;html=1;strokeWidth=2;fillWeight=2;hachureGap=8;fillColor=#990000;fillStyle=dots;sketch=1;" vertex="1" parent="1">
          <mxGeometry x="130" y="790" width="120" height="60" as="geometry" />
        </mxCell>
        <mxCell id="xHJeZc-ZolqW59HUAo1m-26" value="" style="shape=image;html=1;verticalLabelPosition=bottom;verticalAlign=top;imageAspect=0;image=img/clipart/Gear_128x128.png" vertex="1" parent="1">
          <mxGeometry x="679" y="300" width="50" height="60" as="geometry" />
        </mxCell>
        <mxCell id="xHJeZc-ZolqW59HUAo1m-27" value="Vertical Tree Layout" style="swimlane;startSize=20;horizontal=1;childLayout=treeLayout;horizontalTree=0;resizable=0;containerType=tree;" vertex="1" parent="1">
          <mxGeometry x="960" y="750" width="280" height="190" as="geometry" />
        </mxCell>
        <mxCell id="xHJeZc-ZolqW59HUAo1m-28" value="Root" style="whiteSpace=wrap;html=1;" vertex="1" parent="xHJeZc-ZolqW59HUAo1m-27">
          <mxGeometry x="90" y="40" width="100" height="40" as="geometry" />
        </mxCell>
        <mxCell id="xHJeZc-ZolqW59HUAo1m-29" value="Child 1" style="whiteSpace=wrap;html=1;" vertex="1" parent="xHJeZc-ZolqW59HUAo1m-27">
          <mxGeometry x="20" y="130" width="100" height="40" as="geometry" />
        </mxCell>
        <mxCell id="xHJeZc-ZolqW59HUAo1m-30" value="" style="edgeStyle=elbowEdgeStyle;elbow=vertical;html=1;rounded=0;" edge="1" parent="xHJeZc-ZolqW59HUAo1m-27" source="xHJeZc-ZolqW59HUAo1m-28" target="xHJeZc-ZolqW59HUAo1m-29">
          <mxGeometry relative="1" as="geometry" />
        </mxCell>
        <mxCell id="xHJeZc-ZolqW59HUAo1m-31" value="Child 2" style="whiteSpace=wrap;html=1;" vertex="1" parent="xHJeZc-ZolqW59HUAo1m-27">
          <mxGeometry x="160" y="130" width="100" height="40" as="geometry" />
        </mxCell>
        <mxCell id="xHJeZc-ZolqW59HUAo1m-32" value="" style="edgeStyle=elbowEdgeStyle;elbow=vertical;html=1;rounded=0;" edge="1" parent="xHJeZc-ZolqW59HUAo1m-27" source="xHJeZc-ZolqW59HUAo1m-28" target="xHJeZc-ZolqW59HUAo1m-31">
          <mxGeometry relative="1" as="geometry" />
        </mxCell>
        <mxCell id="xHJeZc-ZolqW59HUAo1m-33" value="Vertical Tree Layout" style="swimlane;startSize=20;horizontal=1;childLayout=treeLayout;horizontalTree=0;resizable=0;containerType=tree;" vertex="1" parent="1">
          <mxGeometry x="80" y="1000" width="280" height="190" as="geometry" />
        </mxCell>
        <mxCell id="xHJeZc-ZolqW59HUAo1m-34" value="Root" style="whiteSpace=wrap;html=1;" vertex="1" parent="xHJeZc-ZolqW59HUAo1m-33">
          <mxGeometry x="90" y="40" width="100" height="40" as="geometry" />
        </mxCell>
        <mxCell id="xHJeZc-ZolqW59HUAo1m-35" value="Child 1" style="whiteSpace=wrap;html=1;" vertex="1" parent="xHJeZc-ZolqW59HUAo1m-33">
          <mxGeometry x="20" y="130" width="100" height="40" as="geometry" />
        </mxCell>
        <mxCell id="xHJeZc-ZolqW59HUAo1m-36" value="" style="edgeStyle=elbowEdgeStyle;elbow=vertical;html=1;rounded=0;" edge="1" parent="xHJeZc-ZolqW59HUAo1m-33" source="xHJeZc-ZolqW59HUAo1m-34" target="xHJeZc-ZolqW59HUAo1m-35">
          <mxGeometry relative="1" as="geometry" />
        </mxCell>
        <mxCell id="xHJeZc-ZolqW59HUAo1m-37" value="Child 2" style="whiteSpace=wrap;html=1;" vertex="1" parent="xHJeZc-ZolqW59HUAo1m-33">
          <mxGeometry x="160" y="130" width="100" height="40" as="geometry" />
        </mxCell>
        <mxCell id="xHJeZc-ZolqW59HUAo1m-38" value="" style="edgeStyle=elbowEdgeStyle;elbow=vertical;html=1;rounded=0;" edge="1" parent="xHJeZc-ZolqW59HUAo1m-33" source="xHJeZc-ZolqW59HUAo1m-34" target="xHJeZc-ZolqW59HUAo1m-37">
          <mxGeometry relative="1" as="geometry" />
        </mxCell>
        <mxCell id="xHJeZc-ZolqW59HUAo1m-39" value="Vertical Tree Layout" style="swimlane;startSize=20;horizontal=1;childLayout=treeLayout;horizontalTree=0;resizable=0;containerType=tree;" vertex="1" parent="1">
          <mxGeometry x="570" y="1170" width="280" height="190" as="geometry" />
        </mxCell>
        <mxCell id="xHJeZc-ZolqW59HUAo1m-40" value="Root" style="whiteSpace=wrap;html=1;" vertex="1" parent="xHJeZc-ZolqW59HUAo1m-39">
          <mxGeometry x="90" y="40" width="100" height="40" as="geometry" />
        </mxCell>
        <mxCell id="xHJeZc-ZolqW59HUAo1m-41" value="Child 1" style="whiteSpace=wrap;html=1;" vertex="1" parent="xHJeZc-ZolqW59HUAo1m-39">
          <mxGeometry x="20" y="130" width="100" height="40" as="geometry" />
        </mxCell>
        <mxCell id="xHJeZc-ZolqW59HUAo1m-42" value="" style="edgeStyle=elbowEdgeStyle;elbow=vertical;html=1;rounded=0;" edge="1" parent="xHJeZc-ZolqW59HUAo1m-39" source="xHJeZc-ZolqW59HUAo1m-40" target="xHJeZc-ZolqW59HUAo1m-41">
          <mxGeometry relative="1" as="geometry" />
        </mxCell>
        <mxCell id="xHJeZc-ZolqW59HUAo1m-43" value="Child 2" style="whiteSpace=wrap;html=1;" vertex="1" parent="xHJeZc-ZolqW59HUAo1m-39">
          <mxGeometry x="160" y="130" width="100" height="40" as="geometry" />
        </mxCell>
        <mxCell id="xHJeZc-ZolqW59HUAo1m-44" value="" style="edgeStyle=elbowEdgeStyle;elbow=vertical;html=1;rounded=0;" edge="1" parent="xHJeZc-ZolqW59HUAo1m-39" source="xHJeZc-ZolqW59HUAo1m-40" target="xHJeZc-ZolqW59HUAo1m-43">
          <mxGeometry relative="1" as="geometry" />
        </mxCell>
        <mxCell id="xHJeZc-ZolqW59HUAo1m-45" value="" style="ellipse;html=1;verticalLabelPosition=bottom;labelBackgroundColor=#ffffff;verticalAlign=top;fillColor=#000000" vertex="1" parent="1">
          <mxGeometry x="360" y="1315" width="10" height="10" as="geometry" />
        </mxCell>
        <mxCell id="xHJeZc-ZolqW59HUAo1m-46" value="" style="html=1;outlineConnect=0;whiteSpace=wrap;fillColor=#F5DEAA;shape=mxgraph.archimate3.application;appType=course;archiType=rounded;" vertex="1" parent="1">
          <mxGeometry x="329" y="1410" width="150" height="75" as="geometry" />
        </mxCell>
      </root>
    </mxGraphModel>
  </diagram>
</mxfile>
